# xmcd
#
# Track frame offsets:
#  150
#  14444
#  27539
#  40777
#  63441
#  76052
#  89139
#  104108
#  116980
#  129150
#  147004
#  163691
#
# Disc length: 2389 seconds
#
# Revision: 0
# Processed by: cddbd v1.5.1PL2 Copyright (c) Steve Scherf et al.
# Submitted via: Collectorz.com_Music_Collector 6.9
#
DISCID=a409530c
DTITLE=Jason Barie - My Great Grandfather's Fiddle
DYEAR=1999
DGENRE=Bluegrass
TTITLE0=Irish McGreew
TTITLE1=Goodbye Old Pal
TTITLE2=Woodstock Hornpipe
TTITLE3=Ashokans Farewell
TTITLE4=Sugar In the Gourd
TTITLE5=Chuck-A-Luck
TTITLE6=My Great Grandfather's Fiddle
TTITLE7=Laughing Boy
TTITLE8=American Rifle Team
TTITLE9=Bill Cheatum
TTITLE10=Rose of Old Kentucky
TTITLE11=Ray Burnt the Beans
EXTD=
EXTT0=
EXTT1=
EXTT2=
EXTT3=
EXTT4=
EXTT5=
EXTT6=
EXTT7=
EXTT8=
EXTT9=
EXTT10=
EXTT11=
PLAYORDER=
